<svg xmlns="http://www.w3.org/2000/svg" class="chakra-icon css-i63i4f" focusable="false" viewBox="0 0 512 512"><path xmlns="http://www.w3.org/2000/svg" fill="#e69500" d="m349.946 53.88c5.926 5.926 11.532 11.985 16.768 18.12h.283c10.718 0 21.252 1.185 31.457 3.489-18.259-45.254-47.265-83.863-74.606-73.911-7.795 2.837-13.155 8.786-16.487 16.916 18.404 12.309 33.7 26.502 42.331 35.134z"/><path xmlns="http://www.w3.org/2000/svg" fill="#b37300" d="m67.708 295.084c-23.915-13.807-52.256-9.491-63.301 9.641-11.046 19.132-.613 45.834 23.301 59.641 3.239 1.87 6.883 3.587 10.78 5.116 5.996-26.134 16.073-51.052 29.922-73.979-.233-.139-.468-.284-.702-.419z"/><path xmlns="http://www.w3.org/2000/svg" fill="#ffae1a" d="m512 207c.001-3.978-1.58-7.793-4.393-10.607l-61.716-61.716c-21.072-21.072-49.089-32.677-78.893-32.677-4.362.001-8.852.396-13.69 1.188-7.26-9.625-15.636-19.156-24.572-28.091l-.257-.257c-36.957-36.957-84.086-64.408-106.067-42.427s5.47 69.11 42.427 106.067l.257.257c7.016 7.016 14.399 13.688 21.906 19.745-3.305 9.241-5.002 18.82-5.002 28.518 0 5.077.45 10.095 1.344 15.029-58.735.927-113.808 24.237-155.444 65.872-42.496 42.497-65.9 98.999-65.9 159.099 0 22.704 8.841 44.05 24.895 60.104 16.055 16.054 37.401 24.896 60.105 24.896l145-.001v-20c0-22.088-17.903-39.994-39.99-40h-5.01c-8.284 0-15-6.716-15-15 0-17.29-4.178-74.539-57.942-85.291-8.123-1.625-13.392-9.527-11.767-17.65 1.625-8.125 9.527-13.391 17.65-11.768 27.175 5.436 49.157 20.649 63.572 43.997 9.888 16.017 15.959 35.285 17.847 56.357 34.188 4.596 60.64 33.939 60.64 69.356v20h145c8.284 0 15-6.716 15-15v-5c0-22.088-17.903-39.994-39.99-40h-50.01c-8.284 0-15-6.716-15-15s6.716-15 15-15h37.629c18.402-47.909 24.452-99.158 17.719-150.001 35.683-.187 64.653-29.275 64.652-64.999zm-110-10c-8.284 0-15-6.716-15-15s6.716-15 15-15 15 6.716 15 15-6.716 15-15 15z"/></svg>